<?xml version="1.0" encoding="UTF-8" standalone="no"?>
<svg
   version="1.1"
   id="Mullvad_VPN_Logo_Color_Pos"
   x="0px"
   y="0px"
   viewBox="0 0 191.53714 191.53714"
   xml:space="preserve"
   sodipodi:docname="MullvadVPN_logo_Round_RGB_Color_positive.svg"
   width="64"
   height="64"
   inkscape:version="1.3.2 (1:1.3.2+202311252150+091e20ef0f)"
   xmlns:inkscape="http://www.inkscape.org/namespaces/inkscape"
   xmlns:sodipodi="http://sodipodi.sourceforge.net/DTD/sodipodi-0.dtd"
   xmlns="http://www.w3.org/2000/svg"
   xmlns:svg="http://www.w3.org/2000/svg"><defs
   id="defs36" /><sodipodi:namedview
   id="namedview36"
   pagecolor="#ffffff"
   bordercolor="#eeeeee"
   borderopacity="1"
   inkscape:showpageshadow="0"
   inkscape:pageopacity="0"
   inkscape:pagecheckerboard="0"
   inkscape:deskcolor="#d1d1d1"
   showgrid="true"
   inkscape:zoom="1.4475"
   inkscape:cx="51.813471"
   inkscape:cy="89.119171"
   inkscape:window-width="2560"
   inkscape:window-height="1356"
   inkscape:window-x="0"
   inkscape:window-y="0"
   inkscape:window-maximized="1"
   inkscape:current-layer="logo" />
<g
   id="logo"
   transform="translate(-90.537031,-107.40884)">
	<g
   id="mole"
   style="display:inline">
		
		<g
   id="body">
			<path
   id="fur"
   class="fur"
   style="fill-rule:evenodd;clip-rule:evenodd;fill:#D2943B;"
   d="m 97.9,168.7 -7.1,14.4 9.6,-13.4 c 0,0.1 -0.6,19.3 -0.6,19.3 l 2.7,-14.5 c 7.2,13.7 23.1,34.8 45.4,50.5 1.7,1.2 3.9,3.3 4.6,4.1 0,0 21.3,10.8 54.1,-14.2 0.3,-0.2 0.7,-0.4 1,-0.6 l 0.5,0.3 7.2,4.8 c -2.5,-0.7 -7.3,-1.9 -7.3,-1.9 -15.8,18.2 -41.5,21.2 -55.3,12 -0.6,-0.4 -4,1 -4.6,3 -0.4,1.1 0,2.3 0.5,3.2 2.8,5.2 7,4.7 5,10.8 -1.4,3.3 -3.4,6.5 -5.6,9.5 -4.6,6.2 -11.8,11.7 -11.1,15 32.6,40.2 106.1,34.6 134.1,-1.3 -0.4,-5.2 -8.6,-7.7 -14.3,-20.4 1.6,0.5 4,1.2 4,1.1 0,-0.1 -6.8,-11.1 -7.1,-12.2 l 4.4,0.3 c 0,0 -5.8,-7.2 -6,-7.9 l 5.9,-0.8 c 0,0 -7.4,-8.5 -7.5,-9.2 l 7.5,1.2 -8.2,-9.9 h 3.9 l -4.6,-6.7 -37.3,-14.7 c -14.3,-8.9 -27,-19.8 -36.6,-28.2 l -19.3,-9.4 c -18.5,-1.4 -35.8,-0.9 -46.4,1.2 l 6.8,-11.6 -9.9,11.8 c -0.7,-0.2 -1.4,-0.4 -1.4,-0.4 l 0.7,-15 -3.3,14 z" />
			<path
   id="nose"
   class="nose"
   style="fill-rule:evenodd;clip-rule:evenodd;fill:#FFCD86;"
   d="m 102.4,152.9 c -4.9,-2.3 -10.6,1 -11.6,5.5 -1.2,4.3 1.8,9.6 7.1,10.3 5,-3.1 9.3,-11.1 4.5,-15.8 z" />
		</g>
		<g
   id="g1"
   style="display:inline">
			<path
   id="helmet"
   class="helmet"
   style="fill-rule:evenodd;clip-rule:evenodd;fill:#FFD524;"
   d="m 175.2,141.9 c -1.5,-4.1 -1.1,-9.4 1,-14.4 3,-6.9 8.7,-11.5 14.1,-11.5 1.1,0 2.1,0.2 3.1,0.6 3.1,-2.8 6.7,-5.1 10.7,-6.7 22,-8.8 54.3,6.9 62.6,28.5 4,10.5 2.8,21.9 -0.6,32.4 -2.8,8.6 -13,21 -9.2,30.3 -1.5,-0.4 -32.8,-11 -41.8,-15.8 -14.1,-8.8 -26.7,-19.6 -36.2,-27.9 l -0.3,-0.3 -32,-15.2 c -0.4,-0.2 -0.8,-0.4 -1.1,-0.6 4.4,0.3 21.9,2.4 29.7,0.6" />
			<g
   id="helmet_lamp">
				<path
   id="lamp-light"
   class="lamp-light"
   style="fill:#FFFFFF;"
   d="m 184.6,145.6 c -0.9,0 -1.6,-0.2 -2.3,-0.5 -1.6,-0.7 -2.8,-2 -3.6,-4 -1.4,-3.4 -1,-8.1 0.9,-12.5 2.5,-5.6 7.3,-9.7 11.5,-9.7 0.8,0 1.6,0.2 2.4,0.5 2.1,0.9 3.6,3 4.1,6 0.6,3.2 0.1,6.9 -1.5,10.4 -2.4,5.6 -7.3,9.8 -11.5,9.8 z" />
				
				<path
   id="lamp-ring"
   class="lamp-ring"
   style="fill:#192E45;"
   d="m 191.1,120.6 c 0.6,0 1.2,0.1 1.8,0.4 1.6,0.7 2.8,2.5 3.2,4.9 0.5,2.9 0.1,6.3 -1.4,9.5 -2.2,5.1 -6.5,8.8 -10.1,8.8 -0.6,0 -1.2,-0.1 -1.7,-0.3 v 0 0 c -1.5,-0.6 -2.3,-2 -2.7,-3.1 -1.2,-3 -0.9,-7.4 0.8,-11.4 2.2,-5.2 6.5,-8.8 10.1,-8.8 m 0,-3 c -4.8,0 -10.1,4.4 -12.9,10.7 -2.1,4.7 -2.4,9.8 -0.9,13.7 0.9,2.3 2.4,3.9 4.3,4.8 0.9,0.4 1.9,0.6 3,0.6 4.8,0 10.1,-4.4 12.8,-10.7 1.7,-3.8 2.2,-7.8 1.6,-11.3 -0.6,-3.5 -2.5,-5.8 -4.9,-7.1 -0.9,-0.5 -2,-0.7 -3,-0.7 z" />
				
			</g>
		</g>
	</g>
	
	
	
</g>
</svg>
